<svg width="67" height="19" viewBox="0 0 67 19" fill="none" xmlns="http://www.w3.org/2000/svg">
<path d="M0.739702 18V0.545454H4.43004V14.9574H11.913V18H0.739702ZM29.717 9.27273C29.717 11.1761 29.3562 12.7955 28.6346 14.1307C27.9187 15.4659 26.9414 16.4858 25.7028 17.1903C24.4698 17.8892 23.0835 18.2386 21.5437 18.2386C19.9925 18.2386 18.6005 17.8864 17.3675 17.1818C16.1346 16.4773 15.1602 15.4574 14.4442 14.1222C13.7283 12.7869 13.3704 11.1705 13.3704 9.27273C13.3704 7.36932 13.7283 5.75 14.4442 4.41477C15.1602 3.07955 16.1346 2.0625 17.3675 1.36364C18.6005 0.659091 19.9925 0.306818 21.5437 0.306818C23.0835 0.306818 24.4698 0.659091 25.7028 1.36364C26.9414 2.0625 27.9187 3.07955 28.6346 4.41477C29.3562 5.75 29.717 7.36932 29.717 9.27273ZM25.9755 9.27273C25.9755 8.03977 25.7908 7 25.4215 6.15341C25.0579 5.30682 24.5437 4.66477 23.8789 4.22727C23.2141 3.78977 22.4357 3.57102 21.5437 3.57102C20.6516 3.57102 19.8732 3.78977 19.2085 4.22727C18.5437 4.66477 18.0266 5.30682 17.6573 6.15341C17.2937 7 17.1119 8.03977 17.1119 9.27273C17.1119 10.5057 17.2937 11.5455 17.6573 12.392C18.0266 13.2386 18.5437 13.8807 19.2085 14.3182C19.8732 14.7557 20.6516 14.9744 21.5437 14.9744C22.4357 14.9744 23.2141 14.7557 23.8789 14.3182C24.5437 13.8807 25.0579 13.2386 25.4215 12.392C25.7908 11.5455 25.9755 10.5057 25.9755 9.27273ZM44.0245 6.1875C43.9052 5.77273 43.7376 5.40625 43.5217 5.08807C43.3058 4.7642 43.0415 4.49148 42.729 4.26989C42.4222 4.04261 42.07 3.86932 41.6722 3.75C41.2802 3.63068 40.8455 3.57102 40.3683 3.57102C39.4762 3.57102 38.6921 3.79261 38.016 4.23579C37.3455 4.67898 36.8228 5.32386 36.4478 6.17045C36.0728 7.01136 35.8853 8.03977 35.8853 9.25568C35.8853 10.4716 36.07 11.5057 36.4393 12.358C36.8086 13.2102 37.3313 13.8608 38.0075 14.3097C38.6836 14.7528 39.4819 14.9744 40.4023 14.9744C41.2376 14.9744 41.9506 14.8267 42.5415 14.5312C43.1381 14.2301 43.5927 13.8068 43.9052 13.2614C44.2234 12.7159 44.3825 12.071 44.3825 11.3267L45.1325 11.4375H40.6325V8.65909H47.9364V10.858C47.9364 12.392 47.6126 13.7102 46.9648 14.8125C46.3171 15.9091 45.4251 16.7557 44.2887 17.3523C43.1523 17.9432 41.8512 18.2386 40.3853 18.2386C38.7489 18.2386 37.3114 17.8778 36.0728 17.1562C34.8342 16.429 33.8683 15.3977 33.1751 14.0625C32.4876 12.7216 32.1438 11.1307 32.1438 9.28977C32.1438 7.875 32.3484 6.61364 32.7575 5.50568C33.1722 4.39205 33.7518 3.44886 34.4961 2.67614C35.2404 1.90341 36.1069 1.31534 37.0955 0.911931C38.0842 0.508522 39.1552 0.306818 40.3086 0.306818C41.2972 0.306818 42.2177 0.451704 43.07 0.741477C43.9222 1.02557 44.6779 1.42898 45.337 1.9517C46.0018 2.47443 46.5444 3.09659 46.9648 3.81818C47.3853 4.53409 47.6552 5.32386 47.7745 6.1875H44.0245ZM66.7482 9.27273C66.7482 11.1761 66.3874 12.7955 65.6658 14.1307C64.9499 15.4659 63.9727 16.4858 62.734 17.1903C61.5011 17.8892 60.1147 18.2386 58.5749 18.2386C57.0238 18.2386 55.6317 17.8864 54.3988 17.1818C53.1658 16.4773 52.1914 15.4574 51.4755 14.1222C50.7596 12.7869 50.4016 11.1705 50.4016 9.27273C50.4016 7.36932 50.7596 5.75 51.4755 4.41477C52.1914 3.07955 53.1658 2.0625 54.3988 1.36364C55.6317 0.659091 57.0238 0.306818 58.5749 0.306818C60.1147 0.306818 61.5011 0.659091 62.734 1.36364C63.9727 2.0625 64.9499 3.07955 65.6658 4.41477C66.3874 5.75 66.7482 7.36932 66.7482 9.27273ZM63.0067 9.27273C63.0067 8.03977 62.8221 7 62.4528 6.15341C62.0891 5.30682 61.5749 4.66477 60.9102 4.22727C60.2454 3.78977 59.467 3.57102 58.5749 3.57102C57.6829 3.57102 56.9045 3.78977 56.2397 4.22727C55.5749 4.66477 55.0579 5.30682 54.6886 6.15341C54.3249 7 54.1431 8.03977 54.1431 9.27273C54.1431 10.5057 54.3249 11.5455 54.6886 12.392C55.0579 13.2386 55.5749 13.8807 56.2397 14.3182C56.9045 14.7557 57.6829 14.9744 58.5749 14.9744C59.467 14.9744 60.2454 14.7557 60.9102 14.3182C61.5749 13.8807 62.0891 13.2386 62.4528 12.392C62.8221 11.5455 63.0067 10.5057 63.0067 9.27273Z" fill="black"/>
</svg>
