<svg width="5625" height="2452" viewBox="0 0 5625 2452" fill="none" xmlns="http://www.w3.org/2000/svg">
<rect width="5625" height="2452" fill="#4A69FF"/>
<path d="M764 1201.43C764 861.539 1039.54 586 1379.43 586C1413.99 586 1442 614.012 1442 648.567V1800.39C1442 1836.07 1413.07 1865 1377.39 1865C1038.62 1865 764 1590.38 764 1251.61V1201.43Z" stroke="white" stroke-width="48"/>
<path d="M2263 1201.43C2263 861.539 1987.46 586 1647.57 586C1613.01 586 1585 614.012 1585 648.567V1800.39C1585 1836.07 1613.93 1865 1649.61 1865C1988.38 1865 2263 1590.38 2263 1251.61V1201.43Z" stroke="white" stroke-width="48"/>
<rect x="1223" y="778" width="35" height="1075" fill="white"/>
<rect x="1890" y="1080" width="35" height="750" rx="17.5" fill="white"/>
<rect width="37.9351" height="243.096" transform="matrix(-0.00161661 0.999999 -0.999998 -0.0018904 1257.85 1478.94)" fill="white"/>
<rect width="37.935" height="397.981" transform="matrix(0.00556936 0.999984 -0.999979 0.00651254 2062.22 1500.78)" fill="white"/>
<rect width="37.9351" height="243.096" rx="18.9676" transform="matrix(-0.00161661 0.999999 -0.999998 -0.0018904 2132.8 1081.15)" fill="white"/>
<rect width="37.9351" height="243.096" rx="18.9676" transform="matrix(-0.00161661 0.999999 -0.999998 -0.0018904 2028.56 886.443)" fill="white"/>
<rect width="35.0816" height="213.904" rx="17.5408" transform="matrix(0.999826 -0.0186512 0.0159507 0.999873 1992.29 886.645)" fill="white"/>
<rect width="31.5741" height="413.982" transform="matrix(-0.00161661 0.999999 -0.999998 -0.0018904 1310.56 1241.81)" fill="white"/>
<rect width="35.0816" height="262.103" transform="matrix(-0.999816 0.019164 -0.0163893 -0.999866 1091.39 1263.47)" fill="white"/>
<ellipse cx="882.5" cy="1256.5" rx="37.5" ry="42.5" fill="white"/>
<ellipse cx="1072" cy="1015.5" rx="37" ry="42.5" fill="white"/>
<ellipse cx="1241" cy="759.5" rx="37" ry="42.5" fill="white"/>
<ellipse cx="1011.5" cy="1498" rx="37.5" ry="42" fill="white"/>
<ellipse cx="1317" cy="1256.5" rx="37" ry="42.5" fill="white"/>
<ellipse cx="1664.5" cy="1521" rx="37.5" ry="42" fill="white"/>
<ellipse cx="2073.5" cy="1521" rx="37.5" ry="42" fill="white"/>
<ellipse cx="2148" cy="1100.5" rx="37" ry="42.5" fill="white"/>
<ellipse cx="1785.5" cy="904.5" rx="37.5" ry="41.5" fill="white"/>
<path d="M2595.84 1501C2589.49 1501 2584.27 1498.95 2580.16 1494.84C2576.05 1490.73 2574 1485.51 2574 1479.16V1085.48C2574 1079.13 2576.05 1073.91 2580.16 1069.8C2584.27 1065.69 2589.49 1063.64 2595.84 1063.64C2602.19 1063.64 2607.41 1065.69 2611.52 1069.8C2615.63 1073.91 2617.68 1079.13 2617.68 1085.48V1260.2H2890.96V1085.48C2890.96 1079.13 2893.01 1073.91 2897.12 1069.8C2901.23 1065.69 2906.45 1063.64 2912.8 1063.64C2919.15 1063.64 2924.37 1065.69 2928.48 1069.8C2932.59 1073.91 2934.64 1079.13 2934.64 1085.48V1479.16C2934.64 1485.51 2932.59 1490.73 2928.48 1494.84C2924.37 1498.95 2919.15 1501 2912.8 1501C2906.45 1501 2901.23 1498.95 2897.12 1494.84C2893.01 1490.73 2890.96 1485.51 2890.96 1479.16V1299.4H2617.68V1479.16C2617.68 1485.51 2615.63 1490.73 2611.52 1494.84C2607.41 1498.95 2602.19 1501 2595.84 1501ZM3068.34 1501C3061.99 1501 3056.77 1498.95 3052.66 1494.84C3048.55 1490.73 3046.5 1485.51 3046.5 1479.16V1085.48C3046.5 1079.13 3048.55 1073.91 3052.66 1069.8C3056.77 1065.69 3061.99 1063.64 3068.34 1063.64C3074.69 1063.64 3079.91 1065.69 3084.02 1069.8C3088.13 1073.91 3090.18 1079.13 3090.18 1085.48V1479.16C3090.18 1485.51 3088.13 1490.73 3084.02 1494.84C3079.91 1498.95 3074.69 1501 3068.34 1501ZM3493.54 1501C3487.57 1501 3482.34 1498.95 3477.86 1494.84C3473.76 1490.36 3471.7 1485.13 3471.7 1479.16V1063.64H3515.38V1479.16C3515.38 1485.13 3513.33 1490.36 3509.22 1494.84C3505.12 1498.95 3499.89 1501 3493.54 1501ZM3338.98 1103.4C3333.01 1103.4 3328.16 1101.53 3324.42 1097.8C3320.69 1094.07 3318.82 1089.4 3318.82 1083.8C3318.82 1077.83 3320.69 1072.97 3324.42 1069.24C3328.16 1065.51 3333.01 1063.64 3338.98 1063.64H3648.66C3654.64 1063.64 3659.49 1065.51 3663.22 1069.24C3666.96 1072.97 3668.82 1077.83 3668.82 1083.8C3668.82 1089.4 3666.96 1094.07 3663.22 1097.8C3659.49 1101.53 3654.64 1103.4 3648.66 1103.4H3338.98ZM3755.22 1501C3748.87 1501 3743.64 1498.95 3739.54 1494.84C3735.43 1490.73 3733.38 1485.51 3733.38 1479.16V1085.48C3733.38 1079.13 3735.43 1073.91 3739.54 1069.8C3743.64 1065.69 3748.87 1063.64 3755.22 1063.64H4017.86C4023.83 1063.64 4028.87 1065.69 4032.98 1069.8C4037.46 1073.53 4039.7 1078.57 4039.7 1084.92C4039.7 1090.52 4037.46 1095.37 4032.98 1099.48C4028.87 1103.59 4023.83 1105.64 4017.86 1105.64H3777.06V1260.2H3952.34C3958.68 1260.2 3963.91 1262.25 3968.02 1266.36C3972.12 1270.47 3974.18 1275.51 3974.18 1281.48C3974.18 1287.45 3972.12 1292.49 3968.02 1296.6C3963.91 1300.71 3958.68 1302.76 3952.34 1302.76H3777.06V1459H4017.86C4023.83 1459 4028.87 1461.05 4032.98 1465.16C4037.46 1469.27 4039.7 1474.12 4039.7 1479.72C4039.7 1486.07 4037.46 1491.29 4032.98 1495.4C4028.87 1499.13 4023.83 1501 4017.86 1501H3755.22ZM4255.51 1506.6C4231.62 1506.6 4209.4 1503.24 4188.87 1496.52C4168.71 1489.43 4151.16 1479.53 4136.23 1466.84C4121.3 1454.15 4109.91 1439.4 4102.07 1422.6C4099.08 1416.63 4098.9 1411.21 4101.51 1406.36C4104.5 1401.13 4109.35 1397.59 4116.07 1395.72C4121.3 1394.23 4126.34 1394.79 4131.19 1397.4C4136.42 1400.01 4140.34 1403.93 4142.95 1409.16C4148.55 1419.99 4156.76 1429.69 4167.59 1438.28C4178.42 1446.87 4191.3 1453.59 4206.23 1458.44C4221.16 1462.92 4237.59 1465.16 4255.51 1465.16C4275.3 1465.16 4292.84 1461.99 4308.15 1455.64C4323.46 1448.92 4335.4 1439.4 4343.99 1427.08C4352.95 1414.39 4357.43 1399.08 4357.43 1381.16C4357.43 1358.39 4349.03 1338.79 4332.23 1322.36C4315.43 1305.93 4289.11 1295.48 4253.27 1291C4209.59 1285.77 4175.43 1272.33 4150.79 1250.68C4126.15 1228.65 4113.83 1201.77 4113.83 1170.04C4113.83 1147.27 4119.8 1127.48 4131.75 1110.68C4144.07 1093.88 4160.87 1081 4182.15 1072.04C4203.43 1062.71 4227.88 1058.04 4255.51 1058.04C4276.04 1058.04 4294.71 1061.4 4311.51 1068.12C4328.31 1074.47 4342.87 1083.05 4355.19 1093.88C4367.88 1104.33 4378.15 1115.91 4385.99 1128.6C4389.72 1134.57 4390.84 1140.36 4389.35 1145.96C4388.23 1151.56 4385.06 1155.85 4379.83 1158.84C4374.23 1161.45 4368.44 1161.83 4362.47 1159.96C4356.87 1158.09 4352.58 1154.55 4349.59 1149.32C4343.99 1140.73 4336.9 1132.71 4328.31 1125.24C4320.1 1117.4 4310.02 1111.24 4298.07 1106.76C4286.12 1102.28 4271.75 1099.85 4254.95 1099.48C4225.46 1099.48 4201.75 1105.83 4183.83 1118.52C4165.91 1130.84 4156.95 1148.95 4156.95 1172.84C4156.95 1185.53 4160.31 1197.29 4167.03 1208.12C4173.75 1218.57 4184.76 1227.72 4200.07 1235.56C4215.75 1243.03 4236.66 1248.63 4262.79 1252.36C4309.46 1259.08 4343.99 1273.45 4366.39 1295.48C4389.16 1317.13 4400.55 1345.51 4400.55 1380.6C4400.55 1400.76 4396.82 1418.68 4389.35 1434.36C4382.26 1450.04 4371.99 1463.29 4358.55 1474.12C4345.48 1484.57 4329.99 1492.6 4312.07 1498.2C4294.52 1503.8 4275.67 1506.6 4255.51 1506.6ZM4596.59 1501C4590.62 1501 4585.39 1498.95 4580.91 1494.84C4576.8 1490.36 4574.75 1485.13 4574.75 1479.16V1063.64H4618.43V1479.16C4618.43 1485.13 4616.38 1490.36 4612.27 1494.84C4608.16 1498.95 4602.94 1501 4596.59 1501ZM4442.03 1103.4C4436.06 1103.4 4431.2 1101.53 4427.47 1097.8C4423.74 1094.07 4421.87 1089.4 4421.87 1083.8C4421.87 1077.83 4423.74 1072.97 4427.47 1069.24C4431.2 1065.51 4436.06 1063.64 4442.03 1063.64H4751.71C4757.68 1063.64 4762.54 1065.51 4766.27 1069.24C4770 1072.97 4771.87 1077.83 4771.87 1083.8C4771.87 1089.4 4770 1094.07 4766.27 1097.8C4762.54 1101.53 4757.68 1103.4 4751.71 1103.4H4442.03Z" fill="white"/>
<path d="M2580.16 1494.84L2583.7 1491.3L2580.16 1494.84ZM2580.16 1069.8L2583.7 1073.34L2580.16 1069.8ZM2611.52 1069.8L2615.06 1066.26V1066.26L2611.52 1069.8ZM2617.68 1260.2H2612.68V1265.2H2617.68V1260.2ZM2890.96 1260.2V1265.2H2895.96V1260.2H2890.96ZM2897.12 1069.8L2900.66 1073.34V1073.34L2897.12 1069.8ZM2897.12 1494.84L2900.66 1491.3L2897.12 1494.84ZM2890.96 1299.4H2895.96V1294.4H2890.96V1299.4ZM2617.68 1299.4V1294.4H2612.68V1299.4H2617.68ZM2611.52 1494.84L2615.06 1498.38V1498.38L2611.52 1494.84ZM2595.84 1496C2590.68 1496 2586.77 1494.38 2583.7 1491.3L2576.62 1498.38C2581.76 1503.51 2588.3 1506 2595.84 1506V1496ZM2583.7 1491.3C2580.62 1488.23 2579 1484.32 2579 1479.16H2569C2569 1486.7 2571.49 1493.24 2576.62 1498.38L2583.7 1491.3ZM2579 1479.16V1085.48H2569V1479.16H2579ZM2579 1085.48C2579 1080.32 2580.62 1076.41 2583.7 1073.34L2576.62 1066.26C2571.49 1071.4 2569 1077.94 2569 1085.48H2579ZM2583.7 1073.34C2586.77 1070.26 2590.68 1068.64 2595.84 1068.64V1058.64C2588.3 1058.64 2581.76 1061.13 2576.62 1066.26L2583.7 1073.34ZM2595.84 1068.64C2601 1068.64 2604.91 1070.26 2607.98 1073.34L2615.06 1066.26C2609.92 1061.13 2603.38 1058.64 2595.84 1058.64V1068.64ZM2607.98 1073.34C2611.06 1076.41 2612.68 1080.32 2612.68 1085.48H2622.68C2622.68 1077.94 2620.19 1071.4 2615.06 1066.26L2607.98 1073.34ZM2612.68 1085.48V1260.2H2622.68V1085.48H2612.68ZM2617.68 1265.2H2890.96V1255.2H2617.68V1265.2ZM2895.96 1260.2V1085.48H2885.96V1260.2H2895.96ZM2895.96 1085.48C2895.96 1080.32 2897.58 1076.41 2900.66 1073.34L2893.58 1066.26C2888.45 1071.4 2885.96 1077.94 2885.96 1085.48H2895.96ZM2900.66 1073.34C2903.73 1070.26 2907.64 1068.64 2912.8 1068.64V1058.64C2905.26 1058.64 2898.72 1061.13 2893.58 1066.26L2900.66 1073.34ZM2912.8 1068.64C2917.96 1068.64 2921.87 1070.26 2924.94 1073.34L2932.02 1066.26C2926.88 1061.13 2920.34 1058.64 2912.8 1058.64V1068.64ZM2924.94 1073.34C2928.02 1076.41 2929.64 1080.32 2929.64 1085.48H2939.64C2939.64 1077.94 2937.15 1071.4 2932.02 1066.26L2924.94 1073.34ZM2929.64 1085.48V1479.16H2939.64V1085.48H2929.64ZM2929.64 1479.16C2929.64 1484.32 2928.02 1488.23 2924.94 1491.3L2932.02 1498.38C2937.15 1493.24 2939.64 1486.7 2939.64 1479.16H2929.64ZM2924.94 1491.3C2921.87 1494.38 2917.96 1496 2912.8 1496V1506C2920.34 1506 2926.88 1503.51 2932.02 1498.38L2924.94 1491.3ZM2912.8 1496C2907.64 1496 2903.73 1494.38 2900.66 1491.3L2893.58 1498.38C2898.72 1503.51 2905.26 1506 2912.8 1506V1496ZM2900.66 1491.3C2897.58 1488.23 2895.96 1484.32 2895.96 1479.16H2885.96C2885.96 1486.7 2888.45 1493.24 2893.58 1498.38L2900.66 1491.3ZM2895.96 1479.16V1299.4H2885.96V1479.16H2895.96ZM2890.96 1294.4H2617.68V1304.4H2890.96V1294.4ZM2612.68 1299.4V1479.16H2622.68V1299.4H2612.68ZM2612.68 1479.16C2612.68 1484.32 2611.06 1488.23 2607.98 1491.3L2615.06 1498.38C2620.19 1493.24 2622.68 1486.7 2622.68 1479.16H2612.68ZM2607.98 1491.3C2604.91 1494.38 2601 1496 2595.84 1496V1506C2603.38 1506 2609.92 1503.51 2615.06 1498.38L2607.98 1491.3ZM3052.66 1494.84L3056.2 1491.3L3052.66 1494.84ZM3052.66 1069.8L3056.2 1073.34L3052.66 1069.8ZM3084.02 1069.8L3087.56 1066.26V1066.26L3084.02 1069.8ZM3084.02 1494.84L3087.56 1498.38V1498.38L3084.02 1494.84ZM3068.34 1496C3063.18 1496 3059.27 1494.38 3056.2 1491.3L3049.12 1498.38C3054.26 1503.51 3060.8 1506 3068.34 1506V1496ZM3056.2 1491.3C3053.12 1488.23 3051.5 1484.32 3051.5 1479.16H3041.5C3041.5 1486.7 3043.99 1493.24 3049.12 1498.38L3056.2 1491.3ZM3051.5 1479.16V1085.48H3041.5V1479.16H3051.5ZM3051.5 1085.48C3051.5 1080.32 3053.12 1076.41 3056.2 1073.34L3049.12 1066.26C3043.99 1071.4 3041.5 1077.94 3041.5 1085.48H3051.5ZM3056.2 1073.34C3059.27 1070.26 3063.18 1068.64 3068.34 1068.64V1058.64C3060.8 1058.64 3054.26 1061.13 3049.12 1066.26L3056.2 1073.34ZM3068.34 1068.64C3073.5 1068.64 3077.41 1070.26 3080.48 1073.34L3087.56 1066.26C3082.42 1061.13 3075.88 1058.64 3068.34 1058.64V1068.64ZM3080.48 1073.34C3083.56 1076.41 3085.18 1080.32 3085.18 1085.48H3095.18C3095.18 1077.94 3092.69 1071.4 3087.56 1066.26L3080.48 1073.34ZM3085.18 1085.48V1479.16H3095.18V1085.48H3085.18ZM3085.18 1479.16C3085.18 1484.32 3083.56 1488.23 3080.48 1491.3L3087.56 1498.38C3092.69 1493.24 3095.18 1486.7 3095.18 1479.16H3085.18ZM3080.48 1491.3C3077.41 1494.38 3073.5 1496 3068.34 1496V1506C3075.88 1506 3082.42 1503.51 3087.56 1498.38L3080.48 1491.3ZM3477.86 1494.84L3474.18 1498.22L3474.32 1498.38L3474.48 1498.53L3477.86 1494.84ZM3471.7 1063.64V1058.64H3466.7V1063.64H3471.7ZM3515.38 1063.64H3520.38V1058.64H3515.38V1063.64ZM3509.22 1494.84L3512.76 1498.38L3512.83 1498.3L3512.91 1498.22L3509.22 1494.84ZM3663.22 1069.24L3666.76 1065.7V1065.7L3663.22 1069.24ZM3663.22 1097.8L3666.76 1101.34V1101.34L3663.22 1097.8ZM3493.54 1496C3488.84 1496 3484.82 1494.43 3481.24 1491.15L3474.48 1498.53C3479.87 1503.46 3486.29 1506 3493.54 1506V1496ZM3481.55 1491.46C3478.27 1487.89 3476.7 1483.86 3476.7 1479.16H3466.7C3466.7 1486.41 3469.24 1492.83 3474.18 1498.22L3481.55 1491.46ZM3476.7 1479.16V1063.64H3466.7V1479.16H3476.7ZM3471.7 1068.64H3515.38V1058.64H3471.7V1068.64ZM3510.38 1063.64V1479.16H3520.38V1063.64H3510.38ZM3510.38 1479.16C3510.38 1483.86 3508.81 1487.89 3505.54 1491.46L3512.91 1498.22C3517.84 1492.83 3520.38 1486.41 3520.38 1479.16H3510.38ZM3505.69 1491.3C3502.61 1494.38 3498.7 1496 3493.54 1496V1506C3501.08 1506 3507.62 1503.51 3512.76 1498.38L3505.69 1491.3ZM3338.98 1098.4C3334.14 1098.4 3330.63 1096.93 3327.96 1094.26L3320.89 1101.34C3325.68 1106.13 3331.87 1108.4 3338.98 1108.4V1098.4ZM3327.96 1094.26C3325.22 1091.53 3323.82 1088.16 3323.82 1083.8H3313.82C3313.82 1090.64 3316.15 1096.6 3320.89 1101.34L3327.96 1094.26ZM3323.82 1083.8C3323.82 1078.96 3325.29 1075.44 3327.96 1072.78L3320.89 1065.7C3316.09 1070.5 3313.82 1076.69 3313.82 1083.8H3323.82ZM3327.96 1072.78C3330.63 1070.11 3334.14 1068.64 3338.98 1068.64V1058.64C3331.87 1058.64 3325.68 1060.91 3320.89 1065.7L3327.96 1072.78ZM3338.98 1068.64H3648.66V1058.64H3338.98V1068.64ZM3648.66 1068.64C3653.5 1068.64 3657.02 1070.11 3659.69 1072.78L3666.76 1065.7C3661.96 1060.91 3655.77 1058.64 3648.66 1058.64V1068.64ZM3659.69 1072.78C3662.36 1075.44 3663.82 1078.96 3663.82 1083.8H3673.82C3673.82 1076.69 3671.55 1070.5 3666.76 1065.7L3659.69 1072.78ZM3663.82 1083.8C3663.82 1088.16 3662.42 1091.53 3659.69 1094.26L3666.76 1101.34C3671.49 1096.6 3673.82 1090.64 3673.82 1083.8H3663.82ZM3659.69 1094.26C3657.02 1096.93 3653.5 1098.4 3648.66 1098.4V1108.4C3655.77 1108.4 3661.96 1106.13 3666.76 1101.34L3659.69 1094.26ZM3648.66 1098.4H3338.98V1108.4H3648.66V1098.4ZM3739.54 1494.84L3743.07 1491.3L3739.54 1494.84ZM3739.54 1069.8L3743.07 1073.34L3739.54 1069.8ZM4032.97 1069.8L4029.44 1073.34L4029.6 1073.5L4029.77 1073.64L4032.97 1069.8ZM4032.97 1099.48L4029.6 1095.79L4029.52 1095.87L4029.44 1095.94L4032.97 1099.48ZM3777.06 1105.64V1100.64H3772.06V1105.64H3777.06ZM3777.06 1260.2H3772.06V1265.2H3777.06V1260.2ZM3968.02 1266.36L3971.55 1262.82V1262.82L3968.02 1266.36ZM3968.02 1296.6L3971.55 1300.14L3968.02 1296.6ZM3777.06 1302.76V1297.76H3772.06V1302.76H3777.06ZM3777.06 1459H3772.06V1464H3777.06V1459ZM4032.97 1465.16L4029.44 1468.7L4029.52 1468.77L4029.6 1468.85L4032.97 1465.16ZM4032.97 1495.4L4036.34 1499.1L4036.35 1499.09L4036.35 1499.09L4032.97 1495.4ZM3755.21 1496C3750.06 1496 3746.15 1494.38 3743.07 1491.3L3736 1498.38C3741.14 1503.51 3747.68 1506 3755.21 1506V1496ZM3743.07 1491.3C3739.99 1488.23 3738.38 1484.32 3738.38 1479.16H3728.38C3728.38 1486.7 3730.86 1493.24 3736 1498.38L3743.07 1491.3ZM3738.38 1479.16V1085.48H3728.38V1479.16H3738.38ZM3738.38 1085.48C3738.38 1080.32 3739.99 1076.41 3743.07 1073.34L3736 1066.26C3730.86 1071.4 3728.38 1077.94 3728.38 1085.48H3738.38ZM3743.07 1073.34C3746.15 1070.26 3750.06 1068.64 3755.21 1068.64V1058.64C3747.68 1058.64 3741.14 1061.13 3736 1066.26L3743.07 1073.34ZM3755.21 1068.64H4017.85V1058.64H3755.21V1068.64ZM4017.85 1068.64C4022.54 1068.64 4026.3 1070.2 4029.44 1073.34L4036.51 1066.26C4031.44 1061.19 4025.11 1058.64 4017.85 1058.64V1068.64ZM4029.77 1073.64C4033 1076.33 4034.7 1079.91 4034.7 1084.92H4044.7C4044.7 1077.24 4041.91 1070.73 4036.18 1065.96L4029.77 1073.64ZM4034.7 1084.92C4034.7 1088.99 4033.14 1092.54 4029.6 1095.79L4036.35 1103.17C4041.77 1098.2 4044.7 1092.05 4044.7 1084.92H4034.7ZM4029.44 1095.94C4026.3 1099.08 4022.54 1100.64 4017.85 1100.64V1110.64C4025.11 1110.64 4031.44 1108.09 4036.51 1103.02L4029.44 1095.94ZM4017.85 1100.64H3777.06V1110.64H4017.85V1100.64ZM3772.06 1105.64V1260.2H3782.06V1105.64H3772.06ZM3777.06 1265.2H3952.33V1255.2H3777.06V1265.2ZM3952.33 1265.2C3957.49 1265.2 3961.4 1266.82 3964.48 1269.9L3971.55 1262.82C3966.41 1257.69 3959.87 1255.2 3952.33 1255.2V1265.2ZM3964.48 1269.9C3967.62 1273.04 3969.18 1276.79 3969.18 1281.48H3979.18C3979.18 1274.22 3976.62 1267.9 3971.55 1262.82L3964.48 1269.9ZM3969.18 1281.48C3969.18 1286.17 3967.62 1289.92 3964.48 1293.06L3971.55 1300.14C3976.62 1295.06 3979.18 1288.74 3979.18 1281.48H3969.18ZM3964.48 1293.06C3961.4 1296.14 3957.49 1297.76 3952.33 1297.76V1307.76C3959.87 1307.76 3966.41 1305.27 3971.55 1300.14L3964.48 1293.06ZM3952.33 1297.76H3777.06V1307.76H3952.33V1297.76ZM3772.06 1302.76V1459H3782.06V1302.76H3772.06ZM3777.06 1464H4017.85V1454H3777.06V1464ZM4017.85 1464C4022.54 1464 4026.3 1465.56 4029.44 1468.7L4036.51 1461.62C4031.44 1456.55 4025.11 1454 4017.85 1454V1464ZM4029.6 1468.85C4033.14 1472.1 4034.7 1475.65 4034.7 1479.72H4044.7C4044.7 1472.59 4041.77 1466.44 4036.35 1461.47L4029.6 1468.85ZM4034.7 1479.72C4034.7 1484.74 4032.99 1488.6 4029.6 1491.71L4036.35 1499.09C4041.92 1493.99 4044.7 1487.4 4044.7 1479.72H4034.7ZM4029.61 1491.7C4026.5 1494.53 4022.69 1496 4017.85 1496V1506C4024.97 1506 4031.24 1503.74 4036.34 1499.1L4029.61 1491.7ZM4017.85 1496H3755.21V1506H4017.85V1496ZM4188.87 1496.52L4187.21 1501.24L4187.26 1501.25L4187.31 1501.27L4188.87 1496.52ZM4136.23 1466.84L4132.99 1470.65L4136.23 1466.84ZM4102.07 1422.6L4106.6 1420.49L4106.57 1420.42L4106.54 1420.36L4102.07 1422.6ZM4101.51 1406.36L4097.17 1403.88L4097.14 1403.93L4097.11 1403.99L4101.51 1406.36ZM4116.07 1395.72L4117.41 1400.54L4117.43 1400.53L4117.44 1400.53L4116.07 1395.72ZM4131.19 1397.4L4128.82 1401.8L4128.89 1401.84L4128.95 1401.87L4131.19 1397.4ZM4142.95 1409.16L4138.48 1411.4L4138.49 1411.43L4138.51 1411.46L4142.95 1409.16ZM4206.23 1458.44L4204.68 1463.2L4204.74 1463.21L4204.79 1463.23L4206.23 1458.44ZM4308.15 1455.64L4310.06 1460.26L4310.11 1460.24L4310.16 1460.22L4308.15 1455.64ZM4343.99 1427.08L4339.9 1424.2L4339.9 1424.21L4339.89 1424.22L4343.99 1427.08ZM4332.23 1322.36L4335.72 1318.78L4332.23 1322.36ZM4253.27 1291L4253.89 1286.04L4253.88 1286.04L4253.86 1286.04L4253.27 1291ZM4150.79 1250.68L4147.46 1254.41L4147.47 1254.42L4147.49 1254.44L4150.79 1250.68ZM4131.75 1110.68L4127.72 1107.72L4127.7 1107.75L4127.67 1107.78L4131.75 1110.68ZM4182.15 1072.04L4184.09 1076.65L4184.12 1076.63L4184.16 1076.62L4182.15 1072.04ZM4311.51 1068.12L4309.65 1072.76L4309.7 1072.78L4309.74 1072.8L4311.51 1068.12ZM4355.19 1093.88L4351.89 1097.64L4351.95 1097.69L4352.01 1097.74L4355.19 1093.88ZM4385.99 1128.6L4381.74 1131.23L4381.74 1131.24L4381.75 1131.25L4385.99 1128.6ZM4389.35 1145.96L4384.52 1144.67L4384.48 1144.82L4384.45 1144.98L4389.35 1145.96ZM4379.83 1158.84L4381.94 1163.37L4382.13 1163.28L4382.31 1163.18L4379.83 1158.84ZM4362.47 1159.96L4360.89 1164.7L4360.93 1164.72L4360.98 1164.73L4362.47 1159.96ZM4349.59 1149.32L4353.93 1146.84L4353.86 1146.71L4353.78 1146.59L4349.59 1149.32ZM4328.31 1125.24L4324.86 1128.86L4324.94 1128.94L4325.03 1129.01L4328.31 1125.24ZM4298.07 1106.76L4299.82 1102.08L4298.07 1106.76ZM4254.95 1099.48L4255.06 1094.48L4255 1094.48H4254.95V1099.48ZM4183.83 1118.52L4186.66 1122.64L4186.69 1122.62L4186.72 1122.6L4183.83 1118.52ZM4167.03 1208.12L4162.78 1210.76L4162.8 1210.79L4162.82 1210.82L4167.03 1208.12ZM4200.07 1235.56L4197.79 1240.01L4197.85 1240.04L4197.92 1240.07L4200.07 1235.56ZM4262.79 1252.36L4263.5 1247.41L4263.5 1247.41L4262.79 1252.36ZM4366.39 1295.48L4362.88 1299.05L4362.91 1299.07L4362.94 1299.1L4366.39 1295.48ZM4389.35 1434.36L4384.84 1432.21L4384.81 1432.25L4384.79 1432.3L4389.35 1434.36ZM4358.55 1474.12L4361.67 1478.02L4361.68 1478.02L4361.69 1478.01L4358.55 1474.12ZM4312.07 1498.2L4310.58 1493.43L4310.56 1493.43L4310.55 1493.44L4312.07 1498.2ZM4255.51 1501.6C4232.09 1501.6 4210.41 1498.31 4190.42 1491.77L4187.31 1501.27C4208.4 1508.17 4231.14 1511.6 4255.51 1511.6V1501.6ZM4190.53 1491.8C4170.89 1484.89 4153.89 1475.29 4139.47 1463.03L4132.99 1470.65C4148.43 1483.77 4166.52 1493.96 4187.21 1501.24L4190.53 1491.8ZM4139.47 1463.03C4125.05 1450.78 4114.12 1436.6 4106.6 1420.49L4097.54 1424.71C4105.7 1442.2 4117.54 1457.52 4132.99 1470.65L4139.47 1463.03ZM4106.54 1420.36C4104.11 1415.5 4104.24 1411.84 4105.91 1408.73L4097.11 1403.99C4093.55 1410.59 4094.06 1417.76 4097.6 1424.84L4106.54 1420.36ZM4105.85 1408.84C4108.08 1404.94 4111.74 1402.11 4117.41 1400.54L4114.73 1390.9C4106.96 1393.06 4100.91 1397.33 4097.17 1403.88L4105.85 1408.84ZM4117.44 1400.53C4121.4 1399.4 4125.09 1399.8 4128.82 1401.8L4133.56 1393C4127.58 1389.78 4121.2 1389.06 4114.7 1390.91L4117.44 1400.53ZM4128.95 1401.87C4133.21 1404 4136.35 1407.14 4138.48 1411.4L4147.42 1406.92C4144.32 1400.73 4139.62 1396.03 4133.43 1392.93L4128.95 1401.87ZM4138.51 1411.46C4144.47 1422.99 4153.18 1433.23 4164.48 1442.2L4170.7 1434.36C4160.35 1426.16 4152.62 1416.98 4147.39 1406.86L4138.51 1411.46ZM4164.48 1442.2C4175.83 1451.2 4189.26 1458.18 4204.68 1463.2L4207.77 1453.68C4193.33 1448.99 4181 1442.53 4170.7 1434.36L4164.48 1442.2ZM4204.79 1463.23C4220.26 1467.87 4237.17 1470.16 4255.51 1470.16V1460.16C4238 1460.16 4222.07 1457.97 4207.67 1453.65L4204.79 1463.23ZM4255.51 1470.16C4275.83 1470.16 4294.05 1466.9 4310.06 1460.26L4306.23 1451.02C4291.64 1457.07 4274.76 1460.16 4255.51 1460.16V1470.16ZM4310.16 1460.22C4326.21 1453.17 4338.92 1443.1 4348.09 1429.94L4339.89 1424.22C4331.88 1435.7 4320.7 1444.67 4306.14 1451.06L4310.16 1460.22ZM4348.07 1429.96C4357.72 1416.3 4362.43 1399.95 4362.43 1381.16H4352.43C4352.43 1398.21 4348.18 1412.47 4339.9 1424.2L4348.07 1429.96ZM4362.43 1381.16C4362.43 1356.99 4353.45 1336.12 4335.72 1318.78L4328.73 1325.94C4344.61 1341.45 4352.43 1359.78 4352.43 1381.16H4362.43ZM4335.72 1318.78C4317.82 1301.28 4290.26 1290.59 4253.89 1286.04L4252.65 1295.96C4287.95 1300.37 4313.04 1310.59 4328.73 1325.94L4335.72 1318.78ZM4253.86 1286.04C4210.85 1280.89 4177.75 1267.72 4154.09 1246.92L4147.49 1254.44C4173.11 1276.95 4208.33 1290.66 4252.68 1295.96L4253.86 1286.04ZM4154.12 1246.95C4130.49 1225.83 4118.83 1200.28 4118.83 1170.04H4108.83C4108.83 1203.26 4121.81 1231.48 4147.46 1254.41L4154.12 1246.95ZM4118.83 1170.04C4118.83 1148.19 4124.54 1129.44 4135.82 1113.58L4127.67 1107.78C4115.06 1125.52 4108.83 1146.34 4108.83 1170.04H4118.83ZM4135.78 1113.64C4147.51 1097.64 4163.55 1085.3 4184.09 1076.65L4180.21 1067.43C4158.19 1076.7 4140.63 1090.12 4127.72 1107.72L4135.78 1113.64ZM4184.16 1076.62C4204.7 1067.61 4228.45 1063.04 4255.51 1063.04V1053.04C4227.32 1053.04 4202.16 1057.8 4180.14 1067.46L4184.16 1076.62ZM4255.51 1063.04C4275.49 1063.04 4293.52 1066.31 4309.65 1072.76L4313.37 1063.48C4295.9 1056.49 4276.59 1053.04 4255.51 1053.04V1063.04ZM4309.74 1072.8C4326.03 1078.95 4340.06 1087.24 4351.89 1097.64L4358.49 1090.12C4345.68 1078.86 4330.59 1069.98 4313.28 1063.44L4309.74 1072.8ZM4352.01 1097.74C4364.32 1107.88 4374.21 1119.05 4381.74 1131.23L4390.24 1125.97C4382.09 1112.77 4371.44 1100.79 4358.37 1090.02L4352.01 1097.74ZM4381.75 1131.25C4384.92 1136.32 4385.58 1140.69 4384.52 1144.67L4394.18 1147.25C4396.11 1140.03 4394.53 1132.83 4390.23 1125.95L4381.75 1131.25ZM4384.45 1144.98C4383.63 1149.08 4381.4 1152.19 4377.35 1154.5L4382.31 1163.18C4388.71 1159.52 4392.83 1154.04 4394.25 1146.94L4384.45 1144.98ZM4377.71 1154.31C4373.26 1156.39 4368.76 1156.69 4363.96 1155.19L4360.98 1164.73C4368.12 1166.97 4375.2 1166.52 4381.94 1163.37L4377.71 1154.31ZM4364.05 1155.22C4359.64 1153.75 4356.32 1151.02 4353.93 1146.84L4345.25 1151.8C4348.83 1158.07 4354.1 1162.44 4360.89 1164.7L4364.05 1155.22ZM4353.78 1146.59C4347.9 1137.57 4340.49 1129.2 4331.59 1121.47L4325.03 1129.01C4333.3 1136.21 4340.08 1143.89 4345.4 1152.05L4353.78 1146.59ZM4331.76 1121.62C4323 1113.26 4312.33 1106.77 4299.82 1102.08L4296.31 1111.44C4307.71 1115.71 4317.19 1121.54 4324.86 1128.86L4331.76 1121.62ZM4299.82 1102.08C4287.21 1097.35 4272.25 1094.86 4255.06 1094.48L4254.84 1104.48C4271.24 1104.84 4285.03 1107.21 4296.31 1111.44L4299.82 1102.08ZM4254.95 1094.48C4224.77 1094.48 4199.95 1100.97 4180.94 1114.44L4186.72 1122.6C4203.55 1110.68 4226.14 1104.48 4254.95 1104.48V1094.48ZM4181 1114.4C4161.57 1127.76 4151.95 1147.49 4151.95 1172.84H4161.95C4161.95 1150.4 4170.25 1133.92 4186.66 1122.64L4181 1114.4ZM4151.95 1172.84C4151.95 1186.47 4155.57 1199.14 4162.78 1210.76L4171.28 1205.48C4165.05 1195.44 4161.95 1184.6 4161.95 1172.84H4151.95ZM4162.82 1210.82C4170.17 1222.25 4181.99 1231.92 4197.79 1240.01L4202.35 1231.11C4187.54 1223.52 4177.33 1214.9 4171.24 1205.42L4162.82 1210.82ZM4197.92 1240.07C4214.23 1247.84 4235.68 1253.54 4262.08 1257.31L4263.5 1247.41C4237.63 1243.72 4217.27 1238.21 4202.22 1231.05L4197.92 1240.07ZM4262.08 1257.31C4308.19 1263.95 4341.54 1278.06 4362.88 1299.05L4369.9 1291.91C4346.44 1268.85 4310.72 1254.21 4263.5 1247.41L4262.08 1257.31ZM4362.94 1299.1C4384.6 1319.7 4395.55 1346.7 4395.55 1380.6H4405.55C4405.55 1344.31 4393.72 1314.57 4369.83 1291.86L4362.94 1299.1ZM4395.55 1380.6C4395.55 1400.14 4391.93 1417.3 4384.84 1432.21L4393.86 1436.51C4401.7 1420.06 4405.55 1401.38 4405.55 1380.6H4395.55ZM4384.79 1432.3C4378.02 1447.26 4368.24 1459.89 4355.41 1470.23L4361.69 1478.01C4375.73 1466.7 4386.49 1452.82 4393.9 1436.42L4384.79 1432.3ZM4355.43 1470.22C4342.9 1480.24 4327.98 1487.99 4310.58 1493.43L4313.56 1502.97C4332 1497.21 4348.07 1488.91 4361.67 1478.02L4355.43 1470.22ZM4310.55 1493.44C4293.54 1498.87 4275.2 1501.6 4255.51 1501.6V1511.6C4276.14 1511.6 4295.51 1508.73 4313.59 1502.96L4310.55 1493.44ZM4580.91 1494.84L4577.22 1498.22L4577.37 1498.38L4577.53 1498.53L4580.91 1494.84ZM4574.75 1063.64V1058.64H4569.75V1063.64H4574.75ZM4618.43 1063.64H4623.43V1058.64H4618.43V1063.64ZM4612.27 1494.84L4615.8 1498.38L4615.88 1498.3L4615.95 1498.22L4612.27 1494.84ZM4766.27 1069.24L4769.8 1065.7V1065.7L4766.27 1069.24ZM4766.27 1097.8L4769.8 1101.34V1101.34L4766.27 1097.8ZM4596.59 1496C4591.89 1496 4587.86 1494.43 4584.29 1491.15L4577.53 1498.53C4582.91 1503.46 4589.34 1506 4596.59 1506V1496ZM4584.59 1491.46C4581.32 1487.89 4579.75 1483.86 4579.75 1479.16H4569.75C4569.75 1486.41 4572.29 1492.83 4577.22 1498.22L4584.59 1491.46ZM4579.75 1479.16V1063.64H4569.75V1479.16H4579.75ZM4574.75 1068.64H4618.43V1058.64H4574.75V1068.64ZM4613.43 1063.64V1479.16H4623.43V1063.64H4613.43ZM4613.43 1479.16C4613.43 1483.86 4611.86 1487.89 4608.58 1491.46L4615.95 1498.22C4620.89 1492.83 4623.43 1486.41 4623.43 1479.16H4613.43ZM4608.73 1491.3C4605.66 1494.38 4601.74 1496 4596.59 1496V1506C4604.13 1506 4610.67 1503.51 4615.8 1498.38L4608.73 1491.3ZM4442.03 1098.4C4437.19 1098.4 4433.67 1096.93 4431 1094.26L4423.93 1101.34C4428.73 1106.13 4434.92 1108.4 4442.03 1108.4V1098.4ZM4431 1094.26C4428.27 1091.53 4426.87 1088.16 4426.87 1083.8H4416.87C4416.87 1090.64 4419.2 1096.6 4423.93 1101.34L4431 1094.26ZM4426.87 1083.8C4426.87 1078.96 4428.33 1075.44 4431 1072.78L4423.93 1065.7C4419.14 1070.5 4416.87 1076.69 4416.87 1083.8H4426.87ZM4431 1072.78C4433.67 1070.11 4437.19 1068.64 4442.03 1068.64V1058.64C4434.92 1058.64 4428.73 1060.91 4423.93 1065.7L4431 1072.78ZM4442.03 1068.64H4751.71V1058.64H4442.03V1068.64ZM4751.71 1068.64C4756.55 1068.64 4760.06 1070.11 4762.73 1072.78L4769.8 1065.7C4765.01 1060.91 4758.82 1058.64 4751.71 1058.64V1068.64ZM4762.73 1072.78C4765.4 1075.44 4766.87 1078.96 4766.87 1083.8H4776.87C4776.87 1076.69 4774.6 1070.5 4769.8 1065.7L4762.73 1072.78ZM4766.87 1083.8C4766.87 1088.16 4765.47 1091.53 4762.73 1094.26L4769.8 1101.34C4774.54 1096.6 4776.87 1090.64 4776.87 1083.8H4766.87ZM4762.73 1094.26C4760.06 1096.93 4756.55 1098.4 4751.71 1098.4V1108.4C4758.82 1108.4 4765.01 1106.13 4769.8 1101.34L4762.73 1094.26ZM4751.71 1098.4H4442.03V1108.4H4751.71V1098.4Z" fill="white"/>
</svg>
