<svg width="28" height="28" viewBox="0 0 28 28" fill="none" xmlns="http://www.w3.org/2000/svg">
<path d="M8.16667 19.8333C9.7775 19.8333 11.0833 18.5275 11.0833 16.9167C11.0833 15.3058 9.7775 14 8.16667 14C6.55584 14 5.25 15.3058 5.25 16.9167C5.25 18.5275 6.55584 19.8333 8.16667 19.8333Z" stroke="#181716" stroke-width="2" stroke-linecap="round" stroke-linejoin="round"/>
<path d="M19.8327 19.8333C21.4435 19.8333 22.7493 18.5275 22.7493 16.9167C22.7493 15.3058 21.4435 14 19.8327 14C18.2219 14 16.916 15.3058 16.916 16.9167C16.916 18.5275 18.2219 19.8333 19.8327 19.8333Z" stroke="#181716" stroke-width="2" stroke-linecap="round" stroke-linejoin="round"/>
<path d="M14.0007 8.16666C15.6115 8.16666 16.9173 6.86083 16.9173 5.24999C16.9173 3.63916 15.6115 2.33333 14.0007 2.33333C12.3898 2.33333 11.084 3.63916 11.084 5.24999C11.084 6.86083 12.3898 8.16666 14.0007 8.16666Z" stroke="#181716" stroke-width="2" stroke-linecap="round" stroke-linejoin="round"/>
<path d="M14.0007 25.6667C14.0007 22.445 11.389 19.8333 8.16732 19.8333C4.94566 19.8333 2.33398 22.445 2.33398 25.6667" stroke="#181716" stroke-width="2" stroke-linecap="round" stroke-linejoin="round"/>
<path d="M25.6667 25.6667C25.6667 22.445 23.055 19.8333 19.8333 19.8333C16.6117 19.8333 14 22.445 14 25.6667" stroke="#181716" stroke-width="2" stroke-linecap="round" stroke-linejoin="round"/>
<path d="M19.8327 14C19.8327 10.7784 17.221 8.16667 13.9993 8.16667C10.7777 8.16667 8.16602 10.7784 8.16602 14" stroke="#181716" stroke-width="2" stroke-linecap="round" stroke-linejoin="round"/>
</svg>
