<svg width="24" height="24" viewBox="0 0 24 24" fill="none" xmlns="http://www.w3.org/2000/svg">
<path d="M8.5 18.9005H8C4 18.9005 2 17.9057 2 12.9319V7.95809C2 3.97903 4 1.9895 8 1.9895H16C20 1.9895 22 3.97903 22 7.95809V12.9319C22 16.911 20 18.9005 16 18.9005H15.5C15.19 18.9005 14.89 19.0497 14.7 19.2984L13.2 21.2879C12.54 22.1633 11.46 22.1633 10.8 21.2879L9.3 19.2984C9.14 19.0796 8.77 18.9005 8.5 18.9005Z" stroke="#292D32" stroke-width="1.5" stroke-miterlimit="10" stroke-linecap="round" stroke-linejoin="round"/>
<path d="M15.9965 10.9425H16.0054" stroke="#292D32" stroke-width="2" stroke-linecap="round" stroke-linejoin="round"/>
<path d="M11.9955 10.9425H12.0045" stroke="#292D32" stroke-width="2" stroke-linecap="round" stroke-linejoin="round"/>
<path d="M7.99451 10.9425H8.00349" stroke="#292D32" stroke-width="2" stroke-linecap="round" stroke-linejoin="round"/>
</svg>
