<svg width="22" height="22" viewBox="0 0 22 22" fill="none" xmlns="http://www.w3.org/2000/svg">
<g clip-path="url(#clip0_1025_2190)">
<path d="M19.2507 3.66667H2.75065C2.24439 3.66667 1.83398 4.07708 1.83398 4.58334V19.25C1.83398 19.7563 2.24439 20.1667 2.75065 20.1667H19.2507C19.7569 20.1667 20.1673 19.7563 20.1673 19.25V4.58334C20.1673 4.07708 19.7569 3.66667 19.2507 3.66667Z" stroke="#181716" stroke-width="2" stroke-linecap="round" stroke-linejoin="round"/>
<path d="M1.83398 9.16667H20.1673" stroke="#181716" stroke-width="2" stroke-linecap="round" stroke-linejoin="round"/>
<path d="M1.83398 14.6667H20.1673" stroke="#181716" stroke-width="2" stroke-linecap="round" stroke-linejoin="round"/>
<path d="M7.79102 1.83333V5.49999" stroke="#181716" stroke-width="2" stroke-linecap="round" stroke-linejoin="round"/>
<path d="M14.209 1.83333V5.49999" stroke="#181716" stroke-width="2" stroke-linecap="round" stroke-linejoin="round"/>
<path d="M7.79102 9.16667V20.1667" stroke="#181716" stroke-width="2" stroke-linecap="round" stroke-linejoin="round"/>
<path d="M14.209 9.16667V20.1667" stroke="#181716" stroke-width="2" stroke-linecap="round" stroke-linejoin="round"/>
<path d="M20.166 5.95833V17.875" stroke="#181716" stroke-width="2" stroke-linecap="round" stroke-linejoin="round"/>
<path d="M1.83398 5.95833V17.875" stroke="#181716" stroke-width="2" stroke-linecap="round" stroke-linejoin="round"/>
<path d="M6.41602 20.1667H15.5827" stroke="#181716" stroke-width="2" stroke-linecap="round" stroke-linejoin="round"/>
</g>
<defs>
<clipPath id="clip0_1025_2190">
<rect width="22" height="22" fill="white"/>
</clipPath>
</defs>
</svg>
