<svg width="18" height="18" viewBox="0 0 18 18" fill="none" xmlns="http://www.w3.org/2000/svg">
<path d="M9 16.5C13.1421 16.5 16.5 13.1421 16.5 9C16.5 4.85786 13.1421 1.5 9 1.5C4.85786 1.5 1.5 4.85786 1.5 9C1.5 13.1421 4.85786 16.5 9 16.5Z" stroke="#181716"/>
<path d="M1.5 7.81515C2.63057 7.2813 3.46675 7.20694 4.00853 7.59203C4.82123 8.16971 4.92311 10.524 6.77156 9.39881C8.62001 8.27363 5.98001 7.81515 6.55313 6.18521C7.12624 4.55528 9.00311 5.82139 9.18971 4.03601C9.31406 2.84573 7.8903 2.3903 4.91835 2.6697" stroke="#181716"/>
<path d="M13.5 3C11.3571 4.87072 10.6087 6.00041 11.2547 6.38899C12.2238 6.97189 12.635 6.15124 13.8175 6.38899C15 6.62678 14.744 8.22964 14.122 8.22964C13.5 8.22964 10.2787 7.81942 10.441 9.69937C10.6032 11.5793 12.5408 11.8576 12.5408 12.9079C12.5408 13.6081 12.1121 14.6798 11.2547 16.1228" stroke="#181716" stroke-linecap="round"/>
<path d="M2.28918 12.3474C2.63099 12.1983 2.88793 12.089 3.06 12.0195C4.50266 11.4367 5.57314 11.2993 6.27135 11.6074C7.50604 12.1522 7.03136 13.2525 7.4181 13.6579C7.8048 14.0633 8.7705 13.9454 8.7705 14.7165C8.7705 15.2306 8.59781 15.8114 8.25244 16.4588" stroke="#181716" stroke-linecap="round"/>
</svg>
