<svg width="48" height="48" viewBox="0 0 48 48" fill="none" xmlns="http://www.w3.org/2000/svg">
<path fill-rule="evenodd" clip-rule="evenodd" d="M24 48C37.2548 48 48 37.2548 48 24C48 10.7452 37.2548 0 24 0C10.7452 0 0 10.7452 0 24C0 37.2548 10.7452 48 24 48Z" fill="white"/>
<path d="M24 24C27.3137 24 30 21.3137 30 18C30 14.6863 27.3137 12 24 12C20.6863 12 18 14.6863 18 18C18 21.3137 20.6863 24 24 24Z" stroke="#4A69FF" stroke-width="1.5" stroke-linecap="round" stroke-linejoin="round"/>
<path d="M36 37.2308C36 32.1275 30.6217 28 24 28C17.3783 28 12 32.1275 12 37.2308" stroke="#4A69FF" stroke-width="1.5" stroke-linecap="round" stroke-linejoin="round"/>
</svg>
