<svg width="22" height="15" viewBox="0 0 22 15" fill="none" xmlns="http://www.w3.org/2000/svg">
<path fill-rule="evenodd" clip-rule="evenodd" d="M0.5 7.5C0.5 7.30109 0.579018 7.11032 0.71967 6.96967C0.860322 6.82902 1.05109 6.75 1.25 6.75H18.9395L14.219 2.031C14.0782 1.89017 13.9991 1.69917 13.9991 1.5C13.9991 1.30084 14.0782 1.10983 14.219 0.969001C14.3598 0.828171 14.5508 0.749054 14.75 0.749054C14.9492 0.749054 15.1402 0.828171 15.281 0.969001L21.281 6.969C21.3508 7.03867 21.4063 7.12143 21.4441 7.21255C21.4819 7.30367 21.5013 7.40135 21.5013 7.5C21.5013 7.59865 21.4819 7.69633 21.4441 7.78745C21.4063 7.87857 21.3508 7.96133 21.281 8.031L15.281 14.031C15.1402 14.1718 14.9492 14.2509 14.75 14.2509C14.5508 14.2509 14.3598 14.1718 14.219 14.031C14.0782 13.8902 13.9991 13.6992 13.9991 13.5C13.9991 13.3008 14.0782 13.1098 14.219 12.969L18.9395 8.25H1.25C1.05109 8.25 0.860322 8.17099 0.71967 8.03033C0.579018 7.88968 0.5 7.69891 0.5 7.5Z" fill="white"/>
</svg>
