<svg width="23" height="24" viewBox="0 0 23 24" fill="none" xmlns="http://www.w3.org/2000/svg">
<path fill-rule="evenodd" clip-rule="evenodd" d="M22.5333 21.7L21.0333 23.2L14.8744 17.0411C13.3237 18.2678 11.364 19 9.2333 19C4.20751 19 0.133301 14.9258 0.133301 9.90005C0.133301 4.87426 4.20751 0.800049 9.2333 0.800049C14.2591 0.800049 18.3333 4.87426 18.3333 9.90005C18.3333 12.0308 17.601 13.9904 16.3744 15.5411L22.5333 21.7ZM9.25467 16.9214C13.1207 16.9214 16.2547 13.7874 16.2547 9.92142C16.2547 6.05542 13.1207 2.92142 9.25467 2.92142C5.38868 2.92142 2.25467 6.05542 2.25467 9.92142C2.25467 13.7874 5.38868 16.9214 9.25467 16.9214Z" fill="#4A69FF"/>
</svg>
